<svg width="42" height="40" viewBox="0 0 42 40" fill="none" xmlns="http://www.w3.org/2000/svg">
<path d="M20.1108 7.39404C19.9494 7.11733 19.5998 6.98246 19.3322 6.95483C19.012 6.96003 18.7202 7.13811 18.5683 7.4209L15.4373 13.2455L17.0794 15.1161L18.5976 12.683C18.9204 12.1659 19.7732 12.1659 20.0961 12.683L21.6144 15.1161L23.3972 13.0375L20.1108 7.39404Z" fill="#415167"/>
<path d="M24.8713 15.5962L24.3515 14.7021L22.2569 17.2304C22.0841 17.4679 21.8335 17.623 21.5105 17.5927C21.2176 17.5823 20.949 17.4262 20.7934 17.1767L19.3317 14.8305L17.87 17.1767C17.7145 17.4263 17.4458 17.5823 17.153 17.5927C17.1418 17.5936 17.1305 17.5936 17.1201 17.5936C16.8385 17.5936 16.5733 17.4592 16.4065 17.2304L14.4999 14.9614L6.10846 30.4857C5.96161 30.7604 5.96851 31.0933 6.12833 31.361C6.28816 31.6297 6.57673 31.7935 6.88771 31.7935H16.8497C16.5956 31.0756 16.6402 30.2742 17.0207 29.5982L24.8713 15.5962Z" fill="#415167"/>
<path d="M28.0923 16.3034C27.7782 15.7454 26.8584 15.7454 26.5442 16.3034L24.6944 19.5865L27.3182 22.4494L29.9421 19.5865L28.0923 16.3034Z" fill="#415167"/>
<path d="M36.078 30.4724L30.8197 21.2075L27.9685 24.383C27.8001 24.5847 27.5514 24.7016 27.2888 24.7016C27.0262 24.7016 26.7775 24.5847 26.6091 24.383L23.7579 21.2075L18.5585 30.4725C18.4039 30.7469 18.4065 31.0828 18.5654 31.3547C18.7243 31.6265 19.0144 31.7935 19.3288 31.7935H35.3076C35.622 31.7935 35.9122 31.6265 36.0711 31.3546C36.23 31.0827 36.2326 30.7469 36.078 30.4724Z" fill="#415167"/>
</svg>
