<svg width="27" height="27" viewBox="0 0 27 27" fill="none" xmlns="http://www.w3.org/2000/svg">
<path d="M9.40413 18.9842C7.14088 15.1554 7.13553 11.175 7.3656 9.32288C2.06329 11.8303 -1.10954 17.2134 1.0253 22.0386C3.54002 22.2877 7.06598 21.5296 9.40413 18.9842Z" fill="#415167"/>
<path d="M9.98733 19.9103C7.92205 22.0873 4.37469 23.3167 1.66736 23.1542C4.13927 26.7014 10.715 28.2611 16.638 24.8384C14.1018 24.2265 11.7102 22.4393 9.98733 19.9103Z" fill="#415167"/>
<path d="M16.1832 11.9603C12.6412 8.06111 12.3469 4.34061 12.8338 1.89819C9.17406 3.98319 7.387 9.32835 8.82093 14.7764C10.4207 21.0043 16.1083 25.7159 21.4427 23.3438C21.6085 21.5946 21.3892 17.6683 16.1832 11.9603Z" fill="#415167"/>
<path d="M26.0387 10.1894C24.4122 3.98314 18.9815 -0.305992 14.0376 1.35117C13.3153 3.68528 13.417 7.43827 16.9911 11.2617C18.6123 13.1571 22.6198 17.6466 22.5449 22.7318C25.8301 20.4356 27.3657 15.3667 26.0387 10.1894Z" fill="#415167"/>
</svg>
